<?xml version="1.0" standalone="no"?>
<!DOCTYPE svg PUBLIC "-//W3C//DTD SVG 20010904//EN"
 "http://www.w3.org/TR/2001/REC-SVG-20010904/DTD/svg10.dtd">
<svg version="1.0" xmlns="http://www.w3.org/2000/svg"
 width="500.000000pt" height="300.000000pt" viewBox="0 0 500.000000 300.000000"
 preserveAspectRatio="xMidYMid meet">

<g transform="translate(0.000000,300.000000) scale(0.100000,-0.100000)"
fill="#000000" stroke="none">
<path d="M359 1748 c-48 -139 -60 -163 -78 -166 -20 -3 -22 -9 -19 -58 2 -30
6 -54 11 -54 4 0 1013 0 2242 0 l2235 0 0 55 c0 51 -2 55 -23 55 -19 0 -36 19
-81 86 l-57 85 48 67 c71 98 70 92 19 92 -44 0 -44 0 -87 -70 -24 -38 -49 -70
-56 -70 -9 0 -13 20 -13 70 l0 70 -35 0 -35 0 0 -165 0 -165 -30 0 -30 0 0
165 0 165 -40 0 -40 0 0 -112 0 -112 -66 112 -66 112 -39 0 -39 0 0 -165 0
-165 -30 0 -30 0 0 165 0 165 -35 0 -35 0 0 -165 0 -165 -29 0 c-31 0 -41 18
-41 78 0 21 -8 41 -22 55 l-23 22 23 22 c13 14 22 34 22 53 0 75 -43 100 -170
100 l-90 0 0 -165 0 -165 -47 0 -46 0 21 23 c31 33 30 99 -2 124 -23 19 -23
19 -5 42 26 32 24 74 -5 108 -23 27 -29 28 -125 31 l-101 4 0 -166 0 -166 -30
0 -30 0 0 165 0 165 -35 0 -34 0 -3 -111 -3 -111 -65 111 c-64 110 -65 111
-102 111 l-38 0 0 -165 c0 -158 -1 -165 -20 -165 -13 0 -20 7 -20 20 0 18 -7
20 -80 20 l-80 0 0 50 0 50 70 0 c68 0 70 1 70 25 0 24 -2 25 -70 25 l-70 0 0
45 0 45 80 0 c79 0 80 0 80 25 l0 25 -120 0 -120 0 0 -165 c0 -140 -2 -165
-15 -165 -8 0 -15 9 -15 20 0 18 -7 20 -75 20 l-75 0 0 145 0 145 -40 0 -40 0
0 -165 c0 -140 -2 -165 -15 -165 -8 0 -15 9 -15 20 0 17 -8 19 -77 22 l-78 3
-3 143 -3 142 -34 0 -35 0 0 -165 0 -165 -30 0 -30 0 0 165 0 165 -40 0 -40 0
0 -165 0 -165 -55 0 c-30 0 -55 2 -55 5 0 2 16 72 35 154 19 82 35 154 35 160
0 6 -15 11 -33 11 l-34 0 -23 -112 c-13 -61 -26 -106 -28 -98 -3 7 -17 56 -31
109 -26 94 -27 96 -56 96 -29 0 -30 -2 -56 -96 -14 -53 -28 -102 -31 -109 -2
-7 -14 37 -27 98 l-23 112 -34 0 c-19 0 -34 -5 -34 -11 0 -6 16 -78 35 -160
19 -82 35 -152 35 -154 0 -3 -47 -5 -104 -5 l-104 0 -46 74 c-25 40 -46 79
-46 86 0 7 20 46 45 87 25 40 45 76 45 78 0 3 -18 5 -40 5 -38 0 -41 -3 -71
-56 l-32 -56 -30 56 c-28 53 -32 56 -68 56 -22 0 -39 -3 -39 -6 0 -4 20 -40
45 -81 25 -40 45 -77 45 -80 0 -14 -92 -163 -101 -163 -5 0 -9 9 -9 20 0 18
-7 20 -85 20 l-85 0 0 50 0 50 70 0 c68 0 70 1 70 25 0 24 -2 25 -70 25 l-70
0 0 45 0 45 85 0 c84 0 85 0 85 25 l0 25 -120 0 -120 0 0 -165 c0 -158 -1
-165 -20 -165 -13 0 -20 7 -20 20 0 18 -7 20 -75 20 l-75 0 0 145 0 145 -35 0
-35 0 0 -165 c0 -153 -1 -165 -18 -165 -15 0 -29 32 -74 163 l-55 162 -39 3
-39 3 -56 -163z m3117 91 c33 -27 1 -69 -52 -69 -34 0 -34 0 -34 46 l0 47 36
-6 c20 -3 42 -11 50 -18z m319 1 c38 -32 4 -80 -56 -80 l-39 0 0 51 0 52 40
-6 c23 -3 47 -11 55 -17z m-3310 -121 c6 -16 1 -19 -34 -19 l-40 0 22 63 21
62 13 -44 c7 -24 15 -52 18 -62z m2605 -1 c24 -40 51 -88 62 -105 l20 -33 -66
0 -66 0 0 105 c0 58 2 105 4 105 2 0 23 -33 46 -72z m-1276 -35 c14 -51 26
-94 26 -97 0 -4 -25 -6 -55 -6 -30 0 -55 2 -55 5 0 12 53 195 56 193 1 -2 14
-44 28 -95z m2410 -1 c31 -51 56 -95 56 -97 0 -3 -27 -5 -60 -5 l-60 0 0 102
c0 56 2 99 4 97 2 -2 29 -46 60 -97z m-743 28 c12 -7 19 -21 19 -40 0 -35 -23
-50 -74 -50 l-36 0 0 50 0 50 36 0 c19 0 44 -5 55 -10z m1089 -57 c19 -32 37
-61 38 -65 2 -5 -21 -8 -52 -8 l-56 0 0 65 c0 55 3 65 18 65 10 0 31 -22 52
-57z m-772 35 c5 -7 11 -34 13 -60 l4 -48 -57 0 -58 0 0 60 0 60 44 0 c24 0
48 -6 54 -12z m-2468 -58 c11 -22 20 -42 20 -45 0 -3 -25 -5 -55 -5 l-55 0 27
49 c15 27 31 47 36 44 4 -2 16 -22 27 -43z m-809 -22 l7 -28 -74 0 c-41 0 -74
3 -74 8 0 4 3 17 6 30 6 21 11 23 67 20 57 -3 61 -5 68 -30z"/>
</g>
</svg>
