<?xml version="1.0" standalone="no"?>
<!DOCTYPE svg PUBLIC "-//W3C//DTD SVG 20010904//EN"
 "http://www.w3.org/TR/2001/REC-SVG-20010904/DTD/svg10.dtd">
<svg version="1.0" xmlns="http://www.w3.org/2000/svg"
 width="500.000000pt" height="300.000000pt" viewBox="0 0 500.000000 300.000000"
 preserveAspectRatio="xMidYMid meet">
<metadata>
Created by potrace 1.15, written by Peter Selinger 2001-2017
</metadata>
<g transform="translate(0.000000,300.000000) scale(0.100000,-0.100000)"
fill="#000000" stroke="none">
<path d="M407 1877 c-8 -18 -34 -92 -58 -165 -39 -118 -46 -132 -66 -132 -21 0 -23 -4 -23 -55 l0 -55 2245 0 2245 0 0 55 c0 51 -2 55 -24 55 -19 0 -36 18 -82 85 l-58 85 20 28 c11 15 37 51 58 80 l38 52 -44 0 c-43 0 -44 -1 -87 -70 -23 -38 -49 -70 -57 -70 -11 0 -14 16 -14 70 l0 70 -35 0 -35 0 0 -165 0 -165 -35 0 -35 0 0 165 0 165 -35 0 -34 0 -3 -111 -3 -111 -65 111 c-61 106 -66 111 -97 111 l-33 0 0 -165 0 -165 -35 0 -35 0 0 165 0 165 -35 0 -35 0 0 -165 0 -165 -29 0 c-33 0 -41 14 -41 72 0 29 -6 45 -23 60 l-23 21 23 23 c41 41 24 112 -32 139 -22 10 -62 15 -119 15 l-86 0 0 -165 0 -165 -46 0 -45 0 20 26 c28 36 27 89 -2 118 -23 23 -23 24 -5 46 10 12 18 33 18 47 0 65 -50 93 -170 93 l-80 0 0 -165 0 -165 -30 0 -30 0 0 165 0 165 -35 0 -34 0 -3 -112 -3 -112 -65 109 c-63 106 -67 110 -103 113 l-37 3 0 -165 c0 -159 -1 -166 -20 -166 -13 0 -20 7 -20 20 0 17 -8 19 -82 22 l-83 3 0 45 0 45 73 3 c69 3 72 4 72 27 0 23 -3 24 -72 27 l-73 3 0 40 0 40 83 3 c80 3 82 3 82 27 l0 25 -115 0 -115 0 0 -165 c0 -158 -1 -165 -20 -165 -13 0 -20 7 -20 20 0 18 -7 20 -80 20 l-80 0 0 145 0 145 -35 0 -35 0 0 -165 c0 -134 -3 -165 -14 -165 -7 0 -16 9 -19 20 -5 18 -14 20 -81 20 l-76 0 0 145 0 145 -35 0 -35 0 0 -165 0 -165 -35 0 -35 0 0 165 0 165 -30 0 -30 0 0 -165 0 -165 -60 0 c-33 0 -60 4 -60 10 0 5 16 77 35 159 19 82 35 151 35 155 0 3 -16 6 -35 6 -24 0 -35 -5 -35 -15 0 -8 -10 -61 -22 -117 l-22 -103 -14 50 c-49 179 -52 185 -77 185 -21 0 -27 -8 -41 -57 -9 -32 -24 -85 -33 -118 l-17 -60 -24 118 -24 117 -33 0 c-18 0 -33 -3 -33 -6 0 -4 16 -73 35 -155 19 -82 35 -154 35 -160 0 -6 -39 -9 -107 -7 l-106 3 -49 78 -49 78 37 62 c21 34 44 72 52 85 14 22 13 22 -27 22 -40 0 -42 -2 -68 -55 -15 -30 -31 -55 -35 -55 -5 0 -20 25 -35 55 -26 52 -29 55 -65 55 -21 0 -38 -2 -38 -5 0 -2 20 -38 45 -78 25 -41 45 -79 45 -85 0 -6 -21 -45 -46 -87 -44 -73 -74 -95 -74 -55 0 18 -7 20 -80 20 l-80 0 0 50 0 50 70 0 c68 0 70 1 70 25 0 24 -2 25 -70 25 l-70 0 0 45 0 45 80 0 c79 0 80 0 80 25 l0 25 -115 0 -115 0 0 -165 c0 -158 -1 -165 -20 -165 -13 0 -20 7 -20 20 0 18 -7 20 -75 20 l-75 0 0 145 0 145 -35 0 -35 0 0 -165 c0 -155 -1 -165 -19 -165 -15 0 -29 30 -76 165 l-58 165 -33 0 c-29 0 -36 -5 -47 -33z m2702 -187 c34 -56 61 -103 61 -105 0 -3 -29 -5 -65 -5 l-65 0 0 105 c0 58 2 105 4 105 3 0 32 -45 65 -100z m1111 4 c30 -53 57 -100 58 -105 2 -5 -26 -9 -62 -9 l-66 0 0 105 c0 58 3 105 8 105 4 0 32 -43 62 -96z"/>
</g>
</svg>
